# xmcd
#
# Track frame offsets:
#	183
#	16075
#	28120
#	49495
#	65400
#	78590
#	93275
#	107025
#	120113
#	128678
#	137325
#	149488
#	165003
#	177468
#	188630
#	206783
#	218630
#	245178
#	264115
#	275493
#
# Disc length: 3800
#
# Revision: 1
# Processed by: cddbd v1.5.1PL0 Copyright (c) Steve Scherf et al.
# Submitted via: CDex 1.51
# Normalized: r0:DSETVAR1,TDELIM( - )
#
DISCID=140ed614
DTITLE=Various Artist - Bravos del ritmo
DYEAR=1988
DGENRE=Salsa
TTITLE0=Yo soy la rumba - Machito
TTITLE1=Accelerando - Hector Rivera
TTITLE2=La oportunidad - Ismael Quintana
TTITLE3=Tanga - Machito
TTITLE4=Si los rumberos me llaman - Orchestra Cosmopolita
TTITLE5=Bilongo - Tito Rodriguez
TTITLE6=Ay que canoto - Chappottin
TTITLE7=La fonda de bienvenido - Arsenio Rodriguez
TTITLE8=Lluvia - Perez Prado
TTITLE9=Salsa - La Playa Sextet
TTITLE10=Mamaguela - Tito Rodriguez
TTITLE11=Esa es la del solar - Ray Barreto and Charanga La Moderna
TTITLE12=Canta Pajarito - Louie Colon
TTITLE13=Pacheco's descarga - Charlie Palmieri and His Charanga Duboney
TTITLE14=Amalia los invita - Hector Rivera
TTITLE15=Suena tu bongo - Robert Faz
TTITLE16=Feria en manizales - Ricardo Ray
TTITLE17=Yambu - Tito Rodriguez
TTITLE18=Oriza - Ocho
TTITLE19=O'Ganzo - Perez Prado
EXTD=YEAR: 1988
EXTT0=
EXTT1=
EXTT2=
EXTT3=
EXTT4=
EXTT5=
EXTT6=
EXTT7=
EXTT8=
EXTT9=
EXTT10=
EXTT11=
EXTT12=
EXTT13=
EXTT14=
EXTT15=
EXTT16=
EXTT17=
EXTT18=
EXTT19=
PLAYORDER=
